<svg xmlns="http://www.w3.org/2000/svg" viewBox="0 0 560 360" role="img" aria-label="collections and lists">
  <rect width="560" height="360" rx="14" fill="#111318"/>
  <rect x="0.5" y="0.5" width="559" height="359" rx="13.5" fill="none" stroke="#2a3040"/>
  <rect x="20" y="20" width="170" height="320" rx="10" fill="#181b23" stroke="#2a3040"/>
  <rect x="36" y="40" width="80" height="10" rx="5" fill="#9aa3b2" opacity="0.5"/>
  <rect x="36" y="66" width="138" height="26" rx="7" fill="#5b8cff" opacity="0.22"/>
  <rect x="48" y="74" width="90" height="10" rx="5" fill="#e8ebf2" opacity="0.85"/>
  <rect x="36" y="100" width="138" height="26" rx="7" fill="#2a3040"/>
  <rect x="48" y="108" width="70" height="10" rx="5" fill="#9aa3b2" opacity="0.6"/>
  <rect x="36" y="134" width="138" height="26" rx="7" fill="#2a3040"/>
  <rect x="48" y="142" width="100" height="10" rx="5" fill="#9aa3b2" opacity="0.6"/>
  <rect x="36" y="168" width="138" height="26" rx="7" fill="#2a3040"/>
  <rect x="48" y="176" width="80" height="10" rx="5" fill="#9aa3b2" opacity="0.6"/>
  <rect x="36" y="216" width="60" height="10" rx="5" fill="#9aa3b2" opacity="0.35"/>
  <rect x="36" y="242" width="138" height="26" rx="7" fill="#2a3040"/>
  <rect x="48" y="250" width="90" height="10" rx="5" fill="#9aa3b2" opacity="0.5"/>
  <rect x="210" y="20" width="330" height="72" rx="10" fill="#181b23" stroke="#2a3040"/>
  <rect x="228" y="40" width="140" height="12" rx="6" fill="#e8ebf2" opacity="0.85"/>
  <rect x="228" y="62" width="220" height="9" rx="4.5" fill="#9aa3b2" opacity="0.5"/>
  <rect x="210" y="104" width="330" height="72" rx="10" fill="#181b23" stroke="#2a3040"/>
  <rect x="228" y="124" width="180" height="12" rx="6" fill="#e8ebf2" opacity="0.75"/>
  <rect x="228" y="146" width="200" height="9" rx="4.5" fill="#9aa3b2" opacity="0.45"/>
  <rect x="210" y="188" width="330" height="72" rx="10" fill="#181b23" stroke="#2a3040"/>
  <rect x="228" y="208" width="120" height="12" rx="6" fill="#e8ebf2" opacity="0.65"/>
  <rect x="228" y="230" width="240" height="9" rx="4.5" fill="#9aa3b2" opacity="0.4"/>
  <rect x="210" y="272" width="330" height="68" rx="10" fill="#181b23" stroke="#2a3040" opacity="0.7"/>
  <rect x="228" y="292" width="160" height="12" rx="6" fill="#e8ebf2" opacity="0.5"/>
  <rect x="228" y="314" width="200" height="9" rx="4.5" fill="#9aa3b2" opacity="0.35"/>
</svg>
